<svg width="128" height="128" viewBox="0 0 128 128" fill="none" xmlns="http://www.w3.org/2000/svg">
<path d="M30 20C30 18.3431 31.3431 17 33 17H43C44.6569 17 46 18.3431 46 20V33H30V20Z" fill="url(#paint0_linear_1_2)"/>
<path d="M56 20C56 18.3431 57.3431 17 59 17H69C70.6569 17 72 18.3431 72 20V33H56V20Z" fill="url(#paint1_linear_1_2)"/>
<path d="M82 20C82 18.3431 83.3431 17 85 17H95C96.6569 17 98 18.3431 98 20V33H82V20Z" fill="url(#paint2_linear_1_2)"/>
<rect x="24" y="25" width="80" height="87" rx="5" fill="url(#paint3_linear_1_2)"/>
<g filter="url(#filter0_di_1_2)">
<rect x="39" y="50" width="50" height="10" rx="4" fill="#3B4EA6"/>
<rect x="39" y="64" width="50" height="10" rx="4" fill="#3B4EA6"/>
<rect x="39" y="78" width="50" height="10" rx="4" fill="#3B4EA6"/>
</g>
<defs>
<filter id="filter0_di_1_2" x="35" y="46" width="62" height="50" filterUnits="userSpaceOnUse" color-interpolation-filters="sRGB">
<feFlood flood-opacity="0" result="BackgroundImageFix"/>
<feColorMatrix in="SourceAlpha" type="matrix" values="0 0 0 0 0 0 0 0 0 0 0 0 0 0 0 0 0 0 127 0" result="hardAlpha"/>
<feOffset dx="2" dy="2"/>
<feGaussianBlur stdDeviation="3"/>
<feComposite in2="hardAlpha" operator="out"/>
<feColorMatrix type="matrix" values="0 0 0 0 0 0 0 0 0 0 0 0 0 0 0 0 0 0 0.25 0"/>
<feBlend mode="normal" in2="BackgroundImageFix" result="effect1_dropShadow_1_2"/>
<feBlend mode="normal" in="SourceGraphic" in2="effect1_dropShadow_1_2" result="shape"/>
<feColorMatrix in="SourceAlpha" type="matrix" values="0 0 0 0 0 0 0 0 0 0 0 0 0 0 0 0 0 0 127 0" result="hardAlpha"/>
<feOffset dx="2" dy="2"/>
<feGaussianBlur stdDeviation="3"/>
<feComposite in2="hardAlpha" operator="arithmetic" k2="-1" k3="1"/>
<feColorMatrix type="matrix" values="0 0 0 0 0 0 0 0 0 0 0 0 0 0 0 0 0 0 0.25 0"/>
<feBlend mode="normal" in2="shape" result="effect2_innerShadow_1_2"/>
</filter>
<linearGradient id="paint0_linear_1_2" x1="38" y1="17" x2="38" y2="41" gradientUnits="userSpaceOnUse">
<stop stop-color="#D9D9D9"/>
<stop offset="1" stop-color="#767676" stop-opacity="0"/>
</linearGradient>
<linearGradient id="paint1_linear_1_2" x1="64" y1="17" x2="64" y2="41" gradientUnits="userSpaceOnUse">
<stop stop-color="#D9D9D9"/>
<stop offset="1" stop-color="#767676" stop-opacity="0"/>
</linearGradient>
<linearGradient id="paint2_linear_1_2" x1="90" y1="17" x2="90" y2="41" gradientUnits="userSpaceOnUse">
<stop stop-color="#D9D9D9"/>
<stop offset="1" stop-color="#767676" stop-opacity="0"/>
</linearGradient>
<linearGradient id="paint3_linear_1_2" x1="64" y1="25" x2="91.1322" y2="107.552" gradientUnits="userSpaceOnUse">
<stop stop-color="#23378F"/>
<stop offset="1" stop-color="#0A1444"/>
</linearGradient>
</defs>
</svg>
